<svg id="Layer_1" data-name="Layer 1" xmlns="http://www.w3.org/2000/svg" xmlns:xlink="http://www.w3.org/1999/xlink" viewBox="0 0 135.79 22.33"><defs><style>.cls-1{fill:none;}.cls-2{clip-path:url(#clip-path);}.cls-3,.cls-4,.cls-6{fill:#fff;}.cls-4{font-size:14px;font-family:Montserrat;}.cls-5{letter-spacing:-1px;}.cls-6{stroke:#fff;stroke-miterlimit:10;}</style><clipPath id="clip-path" transform="translate(-4.6 -1.91)"><rect class="cls-1" x="4.6" y="1.65" width="16.42" height="21.12"/></clipPath></defs><title>pintrest</title><g class="cls-2"><path class="cls-3" d="M11.27,15.7c-0.55,2.87-1.22,5.62-3.2,7.06-0.61-4.34.9-7.6,1.6-11.06-1.2-2,.14-6.06,2.66-5.06,3.1,1.23-2.69,7.48,1.2,8.26,4.06,0.81,5.71-7,3.2-9.59C13.09,1.62,6.15,5.22,7,10.51c0.21,1.29,1.54,1.68.53,3.46-2.33-.52-3-2.35-2.93-4.8,0.14-4,3.6-6.81,7.06-7.19,4.38-.49,8.49,1.61,9.06,5.73,0.64,4.65-2,9.69-6.66,9.33-1.27-.1-1.8-0.73-2.8-1.33h0Zm0,0" transform="translate(-4.6 -1.91)"/></g><text class="cls-4" transform="translate(27.64 15.79)"><tspan class="cls-5">T</tspan><tspan x="7.43" y="0">ake Me </tspan><tspan x="62.52" y="0">T</tspan><tspan x="70.91" y="0">here</tspan></text><line class="cls-6" x1="22.08" y1="19.55" x2="22.26" y2="0.87"/></svg>