<svg id="Layer_1" data-name="Layer 1" xmlns="http://www.w3.org/2000/svg" viewBox="0 0 48 48"><defs><style>.cls-1{fill:#fff;}.cls-2{fill:#52b9b5;}</style></defs><title>facebook</title><path class="cls-1" d="M20,39h6V24h4.45L31,18H26.23V15.6a1.27,1.27,0,0,1,1.09-1.43h3.61V9H26.29C21.14,9,20,12.83,20,15.29V18H17v6h3V39Z"/><path class="cls-2" d="M48,24A24,24,0,1,1,24,0,24,24,0,0,1,48,24Z"/><path class="cls-1" d="M20,39h6V24h4.45L31,18H26.23V15.6a1.27,1.27,0,0,1,1.09-1.43h3.61V9H26.29C21.14,9,20,12.83,20,15.29V18H17v6h3V39Z"/></svg>