<svg id="Layer_1" data-name="Layer 1" xmlns="http://www.w3.org/2000/svg" viewBox="0 0 48 48"><defs><style>.cls-1{fill:#fff;}.cls-2{fill:#52b9b5;}</style></defs><title>houze</title><path class="cls-1" d="M20,39h6V24h4.45L31,18H26.23V15.6a1.27,1.27,0,0,1,1.09-1.43h3.61V9H26.29C21.14,9,20,12.83,20,15.29V18H17v6h3V39Z"/><path class="cls-2" d="M48,24A24,24,0,1,1,24,0,24,24,0,0,1,48,24Z"/><polygon class="cls-1" points="14.84 22.81 14.84 13.17 23.1 8.29 23.1 18.1 14.84 22.81"/><polygon class="cls-1" points="23.1 28.4 23.1 19.43 15.43 23.92 23.1 28.4"/><polygon class="cls-1" points="14.84 24.98 14.84 34.16 22.65 29.57 14.84 24.98"/><polygon class="cls-1" points="24.4 19.43 24.4 28.4 32.28 24.02 24.4 19.43"/><polygon class="cls-1" points="32.87 13.97 32.87 22.94 24.98 18.45 32.87 13.97"/><polygon class="cls-1" points="32.87 25.19 32.87 34.91 24.4 39.71 24.4 29.9 32.87 25.19"/></svg>