<?xml version="1.0" encoding="utf-8"?>
<!-- Generator: Adobe Illustrator 19.2.0, SVG Export Plug-In . SVG Version: 6.00 Build 0)  -->
<svg version="1.1" id="Layer_1" xmlns="http://www.w3.org/2000/svg" xmlns:xlink="http://www.w3.org/1999/xlink" x="0px" y="0px"
	 viewBox="0 0 48 48" style="enable-background:new 0 0 48 48;" xml:space="preserve">
<style type="text/css">
	.st0{fill:#52B9B5;}
</style>
<title>houze</title>
<path class="st0" d="M24,0C10.7,0,0,10.7,0,24s10.7,24,24,24s24-10.7,24-24S37.3,0,24,0z M14.8,34.2V25l7.8,4.6L14.8,34.2z
	 M23.1,28.4l-7.7-4.5l7.7-4.5V28.4z M23.1,18.1l-8.3,4.7v-9.6l8.3-4.9V18.1z M24.4,19.4l7.9,4.6l-7.9,4.4V19.4z M32.9,34.9l-8.5,4.8
	v-9.8l8.5-4.7V34.9z M32.9,22.9L25,18.5l7.9-4.5V22.9z"/>
</svg>
