<?xml version="1.0" encoding="utf-8"?>
<!-- Generator: Adobe Illustrator 19.2.0, SVG Export Plug-In . SVG Version: 6.00 Build 0)  -->
<svg version="1.1" id="Layer_1" xmlns="http://www.w3.org/2000/svg" xmlns:xlink="http://www.w3.org/1999/xlink" x="0px" y="0px"
	 viewBox="0 0 48 48" style="enable-background:new 0 0 48 48;" xml:space="preserve">
<style type="text/css">
	.st0{fill:#52B9B5;}
</style>
<title>instagram</title>
<g>
	<polygon class="st0" points="35.5,12.5 34.9,12.5 30.5,12.5 30.5,17.5 35.5,17.5 	"/>
	<path class="st0" d="M24,0C10.7,0,0,10.7,0,24s10.7,24,24,24s24-10.7,24-24S37.3,0,24,0z M39,33.2c0,3.2-2.6,5.8-5.8,5.8H14.8
		C11.6,39,9,36.4,9,33.2V14.8C9,11.6,11.6,9,14.8,9h18.4c3.2,0,5.8,2.6,5.8,5.8V33.2z"/>
	<path class="st0" d="M20.9,28.3c2.4,1.7,5.7,1.2,7.4-1.2c1.7-2.4,1.2-5.7-1.2-7.4c-2.4-1.7-5.7-1.2-7.4,1.2c-0.6,0.9-1,2-1,3.1
		C18.7,25.7,19.5,27.3,20.9,28.3z"/>
	<path class="st0" d="M31.6,27.1c-1.7,4.2-6.5,6.2-10.7,4.5c-4.2-1.7-6.2-6.5-4.5-10.7h-4.5v12.3c0,1.6,1.3,2.9,2.9,2.9h18.4
		c1.6,0,2.9-1.3,2.9-2.9V20.9h-4.5C32.4,22.9,32.4,25.1,31.6,27.1z"/>
</g>
</svg>
